<svg width="26" height="26" viewBox="0 0 26 26" fill="none" xmlns="http://www.w3.org/2000/svg">
<path d="M7.58356 25.9999C8.78019 25.9999 9.75025 25.0298 9.75025 23.8332C9.75025 22.6366 8.78019 21.6665 7.58356 21.6665C6.38693 21.6665 5.41687 22.6366 5.41687 23.8332C5.41687 25.0298 6.38693 25.9999 7.58356 25.9999Z" fill="#EBF0FD"/>
<path d="M18.4169 25.9999C19.6135 25.9999 20.5836 25.0298 20.5836 23.8332C20.5836 22.6366 19.6135 21.6665 18.4169 21.6665C17.2202 21.6665 16.2502 22.6366 16.2502 23.8332C16.2502 25.0298 17.2202 25.9999 18.4169 25.9999Z" fill="#EBF0FD"/>
<path d="M24.9167 3.25003H22.75V1.08334C22.75 0.796024 22.6359 0.520471 22.4327 0.317304C22.2296 0.114138 21.954 0 21.6667 0C21.3794 0 21.1038 0.114138 20.9006 0.317304C20.6975 0.520471 20.5833 0.796024 20.5833 1.08334V3.25003H18.4167C18.1293 3.25003 17.8538 3.36417 17.6506 3.56734C17.4474 3.7705 17.3333 4.04606 17.3333 4.33338C17.3333 4.6207 17.4474 4.89625 17.6506 5.09942C17.8538 5.30258 18.1293 5.41672 18.4167 5.41672H20.5833V7.58341C20.5833 7.87073 20.6975 8.14628 20.9006 8.34945C21.1038 8.55262 21.3794 8.66675 21.6667 8.66675C21.954 8.66675 22.2296 8.55262 22.4327 8.34945C22.6359 8.14628 22.75 7.87073 22.75 7.58341V5.41672H24.9167C25.204 5.41672 25.4796 5.30258 25.6828 5.09942C25.8859 4.89625 26.0001 4.6207 26.0001 4.33338C26.0001 4.04606 25.8859 3.7705 25.6828 3.56734C25.4796 3.36417 25.204 3.25003 24.9167 3.25003Z" fill="#EBF0FD"/>
<path d="M23.5855 10.5366C23.4454 10.5104 23.3015 10.5122 23.1622 10.5421C23.0228 10.5719 22.8908 10.629 22.7737 10.7103C22.6566 10.7915 22.5568 10.8951 22.48 11.0152C22.4033 11.1353 22.3512 11.2694 22.3266 11.4098C22.1915 12.1596 21.7973 12.8382 21.2127 13.3269C20.6282 13.8156 19.8905 14.0834 19.1286 14.0835H5.86956L4.85122 5.41672H14.0835C14.3708 5.41672 14.6463 5.30258 14.8495 5.09942C15.0527 4.89625 15.1668 4.6207 15.1668 4.33338C15.1668 4.04606 15.0527 3.7705 14.8495 3.56734C14.6463 3.36417 14.3708 3.25003 14.0835 3.25003H4.59555L4.55005 2.8687C4.45669 2.0785 4.07669 1.35001 3.48207 0.821288C2.88745 0.292562 2.11954 0.00033891 1.32385 0L1.08334 0C0.796024 0 0.520471 0.114138 0.317304 0.317304C0.114138 0.520471 0 0.796024 0 1.08334C0 1.37067 0.114138 1.64622 0.317304 1.84938C0.520471 2.05255 0.796024 2.16669 1.08334 2.16669H1.32385C1.58919 2.16672 1.8453 2.26414 2.04359 2.44047C2.24188 2.61679 2.36856 2.85976 2.39961 3.12328L3.89029 15.7984C4.04505 17.1166 4.6784 18.3321 5.67013 19.2142C6.66185 20.0963 7.94292 20.5836 9.27018 20.5835H20.5835C20.8709 20.5835 21.1464 20.4694 21.3496 20.2662C21.5527 20.0631 21.6669 19.7875 21.6669 19.5002C21.6669 19.2129 21.5527 18.9373 21.3496 18.7342C21.1464 18.531 20.8709 18.4169 20.5835 18.4169H9.27018C8.59798 18.417 7.94228 18.2087 7.3934 17.8206C6.84452 17.4326 6.42946 16.8839 6.2054 16.2502H19.1286C20.3985 16.2503 21.628 15.8043 22.6024 14.99C23.5768 14.1758 24.2342 13.0451 24.4597 11.7955C24.4851 11.6554 24.4825 11.5117 24.4523 11.3726C24.422 11.2335 24.3647 11.1018 24.2835 10.9849C24.2023 10.868 24.0988 10.7682 23.9791 10.6913C23.8593 10.6144 23.7256 10.5618 23.5855 10.5366Z" fill="#EBF0FD"/>
</svg>
