<svg width="13" height="14" viewBox="0 0 13 14" fill="none" xmlns="http://www.w3.org/2000/svg">
<path d="M10.1337 5.125H8.87498V1.16667C8.87498 0.73125 8.51873 0.375 8.08331 0.375H4.91665C4.48123 0.375 4.12498 0.73125 4.12498 1.16667V5.125H2.86623C2.16165 5.125 1.8054 5.98 2.30415 6.47875L5.9379 10.1125C6.24665 10.4213 6.7454 10.4213 7.05415 10.1125L10.6879 6.47875C11.1866 5.98 10.8383 5.125 10.1337 5.125ZM0.958313 13.0417C0.958313 13.4771 1.31456 13.8333 1.74998 13.8333H11.25C11.6854 13.8333 12.0416 13.4771 12.0416 13.0417C12.0416 12.6063 11.6854 12.25 11.25 12.25H1.74998C1.31456 12.25 0.958313 12.6063 0.958313 13.0417Z" fill="#5A5D74"/>
</svg>
