<svg width="12" height="10" viewBox="0 0 12 10" fill="none" xmlns="http://www.w3.org/2000/svg">
<path d="M11.9998 6.2793V7.40923C11.9998 8.8404 9.31338 9.99989 6.00039 9.99989C2.6874 9.99989 0.00317383 8.8404 0.00317383 7.40923V6.2793C0.00317383 7.70933 2.68962 8.86882 6.00373 8.86882C9.31783 8.86882 11.9998 7.70933 11.9998 6.2793Z" fill="#CE9F4E"/>
<path d="M6.00056 3.68665C2.68645 3.68665 0 4.84613 0 6.27731C0 7.70848 2.68645 8.86683 6.00056 8.86683C9.31466 8.86683 12 7.70734 12 6.27731C12 4.84727 9.31355 3.68665 6.00056 3.68665Z" fill="#EFBC5E"/>
<path d="M6.0006 4.39807C3.59459 4.39807 1.64374 5.2404 1.64374 6.2794C1.64374 7.31839 3.59459 8.15959 6.0006 8.15959C8.4066 8.15959 10.353 7.31725 10.353 6.2794C10.353 5.24154 8.4066 4.39807 6.0006 4.39807Z" fill="#EAAA28"/>
<path d="M6.36227 5.05737V5.25517C6.81703 5.26624 7.27024 5.31376 7.71773 5.39726L7.31599 5.81331C6.8959 5.72777 6.46897 5.68211 6.04065 5.6769C5.91314 5.67216 5.78552 5.68169 5.66005 5.70532C5.58771 5.72465 5.54876 5.75193 5.54876 5.78944C5.54876 5.82696 5.57547 5.84742 5.62889 5.86902C5.71857 5.89952 5.81049 5.9227 5.90376 5.93836C6.03508 5.9645 6.21648 5.99406 6.44907 6.02816C6.79573 6.06913 7.13642 6.15193 7.464 6.27483C7.66877 6.36729 7.77115 6.48552 7.77115 6.6295C7.77115 6.7932 7.65096 6.9262 7.41058 7.0285C7.07327 7.1499 6.71876 7.21404 6.36115 7.21834V7.50025H5.66116V7.22743C5.18187 7.21876 4.70404 7.17087 4.23224 7.08421V6.59881C4.49377 6.65678 4.77866 6.70453 5.0847 6.74318C5.35299 6.77914 5.62317 6.7985 5.89375 6.80115C6.03462 6.80527 6.17554 6.79499 6.31441 6.77046C6.40344 6.75114 6.44795 6.71703 6.44795 6.67043C6.44795 6.62382 6.41568 6.61132 6.35114 6.58858C6.24601 6.5565 6.13894 6.53144 6.03063 6.51355C5.88225 6.48551 5.67971 6.45141 5.42301 6.41125C5.1886 6.3766 4.95691 6.32493 4.72969 6.25665C4.59085 6.2189 4.46047 6.15405 4.34576 6.06567C4.3075 6.03386 4.2768 5.9936 4.25598 5.94792C4.23517 5.90224 4.22477 5.85233 4.22557 5.80195C4.22557 5.64166 4.34576 5.51548 4.58391 5.42568C4.93271 5.31645 5.29523 5.25978 5.66005 5.25744V5.05737H6.36227Z" fill="white"/>
<path d="M11.9998 4.50159V5.63265C11.9998 7.06269 9.31338 8.22218 6.00039 8.22218C2.6874 8.22218 0.00317383 7.06269 0.00317383 5.63265V4.50159C0.00317383 5.93162 2.68962 7.09111 6.00373 7.09111C9.31783 7.09111 11.9998 5.93162 11.9998 4.50159Z" fill="#CE9F4E"/>
<path d="M6.00056 1.91089C2.68645 1.91089 0 3.07038 0 4.50155C0 5.93272 2.68645 7.09676 6.00056 7.09676C9.31466 7.09676 12 5.93727 12 4.50723C12 3.0772 9.31355 1.91089 6.00056 1.91089Z" fill="#EFBC5E"/>
<path d="M6.0006 2.62036C3.59459 2.62036 1.64374 3.4627 1.64374 4.50169C1.64374 5.54068 3.59459 6.38188 6.0006 6.38188C8.4066 6.38188 10.353 5.53955 10.353 4.50169C10.353 3.46383 8.4066 2.62036 6.0006 2.62036Z" fill="#EAAA28"/>
<path d="M6.36222 3.27954V3.47733C6.81698 3.48841 7.2702 3.53592 7.71768 3.61943L7.31594 4.03548C6.89585 3.94994 6.46892 3.90427 6.0406 3.89907C5.9131 3.89433 5.78547 3.90386 5.66 3.92749C5.58766 3.94681 5.54871 3.97409 5.54871 4.01161C5.54871 4.04912 5.57542 4.06958 5.62884 4.09118C5.71853 4.12168 5.81044 4.14487 5.90372 4.16052C6.03504 4.18667 6.21643 4.21622 6.44902 4.25033C6.79569 4.2913 7.13637 4.3741 7.46395 4.497C7.66872 4.58946 7.7711 4.70768 7.7711 4.85167C7.7711 5.01536 7.65091 5.14836 7.41053 5.25067C7.07322 5.37207 6.71872 5.4362 6.36111 5.44051V5.72242H5.66111V5.4496C5.18183 5.44093 4.70399 5.39303 4.2322 5.30637V4.82325C4.49372 4.88122 4.77862 4.92897 5.08465 4.96762C5.35295 5.00358 5.62312 5.02294 5.8937 5.02559C6.03457 5.02971 6.17549 5.01943 6.31436 4.9949C6.40339 4.97558 6.44791 4.94147 6.44791 4.89487C6.44791 4.84826 6.41564 4.83576 6.35109 4.81302C6.24596 4.78094 6.1389 4.75588 6.03059 4.73799C5.8822 4.70995 5.67966 4.67585 5.42296 4.63569C5.18846 4.60159 4.95673 4.54992 4.72965 4.48109C4.5908 4.44334 4.46042 4.37849 4.34571 4.29011C4.30882 4.25776 4.27948 4.21738 4.25984 4.17195C4.2402 4.12651 4.23076 4.07717 4.2322 4.02752C4.2322 3.86724 4.35239 3.74106 4.59054 3.65126C4.93934 3.54203 5.30187 3.48535 5.66668 3.48302V3.28295L6.36222 3.27954Z" fill="white"/>
<path d="M11.9998 2.5907V3.72177C11.9998 5.1518 9.31338 6.31129 6.00039 6.31129C2.6874 6.31129 0.00317383 5.1518 0.00317383 3.72177V2.5907C0.00317383 4.02073 2.68962 5.18023 6.00373 5.18023C9.31783 5.18023 11.9998 4.02073 11.9998 2.5907Z" fill="#CE9F4E"/>
<path d="M6.00056 0C2.68645 0 0 1.15949 0 2.59066C0 4.02183 2.68645 5.18019 6.00056 5.18019C9.31466 5.18019 12 4.02069 12 2.59066C12 1.16062 9.31355 0 6.00056 0Z" fill="#EFBC5E"/>
<path d="M6.0006 0.709351C3.59459 0.709351 1.64374 1.55168 1.64374 2.59068C1.64374 3.62967 3.59459 4.47087 6.0006 4.47087C8.4066 4.47087 10.353 3.62853 10.353 2.59068C10.353 1.55282 8.4066 0.709351 6.0006 0.709351Z" fill="#D0A04F"/>
<path d="M6.36226 1.36853V1.56633C6.81709 1.57724 7.27034 1.62513 7.71772 1.70956L7.31598 2.12561C6.89601 2.03917 6.46903 1.99312 6.04064 1.98806C5.91314 1.98332 5.78551 1.99285 5.66004 2.01648C5.5877 2.03581 5.54875 2.06309 5.54875 2.1006C5.54875 2.13811 5.57546 2.15858 5.62888 2.18017C5.71857 2.21068 5.81048 2.23386 5.90376 2.24951C6.03507 2.27566 6.21647 2.30522 6.44906 2.33932C6.79573 2.38029 7.13641 2.46309 7.46399 2.586C7.66876 2.67807 7.77114 2.7963 7.77114 2.9418C7.77114 3.10473 7.65095 3.23736 7.41057 3.33966C7.07326 3.46107 6.71876 3.52519 6.36114 3.5295V3.81142H5.66115V3.5386C5.18187 3.52992 4.70403 3.48202 4.23224 3.39536V2.91111C4.49376 2.96794 4.77865 3.01569 5.08469 3.05434C5.35545 3.09252 5.62824 3.11378 5.90153 3.118C6.0424 3.12211 6.18333 3.11183 6.32219 3.0873C6.41122 3.0676 6.45574 3.03463 6.45574 2.9884C6.45574 2.95506 6.42346 2.92778 6.35892 2.90656C6.25385 2.87397 6.14678 2.84852 6.03842 2.8304C5.89003 2.80236 5.68749 2.76825 5.43079 2.72809C5.19619 2.69454 4.96442 2.64286 4.73748 2.57349C4.59863 2.53575 4.46825 2.47089 4.35354 2.38252C4.31528 2.35071 4.28459 2.31045 4.26377 2.26476C4.24295 2.21908 4.23255 2.16917 4.23335 2.11879C4.23335 1.95851 4.35354 1.83346 4.59169 1.74252C4.94049 1.63329 5.30302 1.57662 5.66783 1.57429V1.37422L6.36226 1.36853Z" fill="white"/>
<path d="M7.00214 7.33777L7.22472 7.76291C7.33325 7.96531 7.4962 8.13176 7.69434 8.24262L8.11055 8.46997L7.69434 8.69732C7.4959 8.80829 7.33288 8.97521 7.22472 9.17817L7.00214 9.60218L6.77401 9.17817C6.66584 8.97521 6.50282 8.80829 6.30438 8.69732L5.88928 8.46997L6.30438 8.24262C6.50252 8.13176 6.66547 7.96531 6.77401 7.76291L7.00214 7.33777Z" fill="white"/>
</svg>
